<?xml version="1.0" encoding="utf-8"?>
<!-- Generator: Adobe Illustrator 15.1.0, SVG Export Plug-In . SVG Version: 6.00 Build 0)  -->
<!DOCTYPE svg PUBLIC "-//W3C//DTD SVG 1.1//EN" "http://www.w3.org/Graphics/SVG/1.1/DTD/svg11.dtd">
<svg version="1.1" id="Layer_1" xmlns="http://www.w3.org/2000/svg" xmlns:xlink="http://www.w3.org/1999/xlink" x="0px" y="0px"
	 width="180px" height="70px" viewBox="0 0 180 70" enable-background="new 0 0 180 70" xml:space="preserve">
<g>
	<path fill="#ED1C24" d="M10.243,52.997l1.936-35.474l15.847,0.009c3.383,0,5.994,0.871,7.808,2.553
		c1.814,1.721,2.62,4.082,2.475,7.116c-0.13,1.942-0.655,3.562-1.619,4.837c-0.974,1.286-2.283,2.119-3.937,2.496
		c2.211,0.511,3.839,1.445,4.853,2.85c1.027,1.391,1.48,3.256,1.339,5.608c-0.156,3.303-1.348,5.812-3.533,7.478
		c-2.183,1.7-5.292,2.535-9.357,2.526H10.243z M22.198,38.56l-0.311,5.663h2.001c1.178,0,2.123-0.233,2.777-0.729
		c0.674-0.5,1.043-1.187,1.066-2.098c0.061-0.912-0.201-1.625-0.829-2.107c-0.616-0.471-1.511-0.729-2.693-0.729H22.198z
		 M22.888,25.973l-0.275,4.956h1.569c0.958,0,1.717-0.206,2.238-0.64c0.529-0.428,0.826-1.047,0.863-1.857
		c0.027-0.813-0.182-1.42-0.654-1.835c-0.484-0.418-1.218-0.623-2.179-0.623H22.888z"/>
	<path fill="#ED1C24" d="M67.831,31.646c-1.019-1.125-2.073-1.949-3.18-2.5c-1.095-0.557-2.277-0.822-3.526-0.822
		c-1.944-0.014-3.561,0.63-4.809,1.912c-1.263,1.287-1.937,2.993-2.047,5.133c-0.115,2.077,0.361,3.743,1.429,4.972
		c1.055,1.26,2.531,1.879,4.438,1.879c1.16,0,2.326-0.259,3.544-0.785c1.205-0.525,2.548-1.352,4.011-2.5L66.585,52.28
		c-1.33,0.568-2.646,0.988-3.948,1.28c-1.34,0.263-2.639,0.403-3.928,0.403c-1.616,0-3.149-0.186-4.621-0.576
		c-1.48-0.391-2.802-0.938-3.972-1.654c-2.819-1.813-4.915-4.095-6.266-6.854c-1.343-2.768-1.917-5.931-1.73-9.542
		c0.136-2.632,0.706-5.103,1.675-7.354c0.966-2.266,2.319-4.256,4.044-5.969c1.729-1.76,3.709-3.081,5.927-3.974
		c2.225-0.889,4.572-1.334,7.1-1.334c1.339,0,2.659,0.154,3.945,0.458c1.286,0.307,2.535,0.737,3.728,1.343L67.831,31.646z"/>
	<polygon fill="#ED1C24" points="71.557,53.035 73.465,17.572 85.394,17.584 84.1,41.53 95.681,41.548 95.068,53.065 	"/>
	<polygon fill="#ED1C24" points="98.328,53.065 100.244,17.601 112.169,17.601 110.901,41.556 122.45,41.569 121.847,53.078 	"/>
	<polygon fill="#ED1C24" points="108.082,0 144.059,35.122 108.082,70 134.357,70 170.761,34.994 	"/>
	<path fill="#ED1C24" d="M9.46,64.099l0.731-5.997h1.16c0.486,0,0.841,0.029,1.063,0.093c0.22,0.047,0.402,0.136,0.557,0.279
		c0.168,0.128,0.29,0.276,0.356,0.463c0.075,0.174,0.121,0.386,0.121,0.602c0,0.395-0.112,0.713-0.305,0.963
		c-0.234,0.267-0.509,0.402-0.874,0.471c0.365,0.046,0.64,0.203,0.845,0.432c0.213,0.238,0.288,0.521,0.288,0.891
		c0,0.318-0.054,0.58-0.178,0.835c-0.11,0.263-0.288,0.462-0.507,0.628c-0.204,0.135-0.408,0.203-0.675,0.262
		c-0.254,0.056-0.69,0.08-1.294,0.08H9.46z M10.729,63.104h0.222c0.497,0,0.835-0.063,1.013-0.195
		c0.196-0.136,0.293-0.343,0.293-0.665c0-0.254-0.078-0.449-0.238-0.547c-0.161-0.115-0.445-0.183-0.886-0.183H10.92L10.729,63.104z
		 M11.227,59.08l-0.178,1.454h0.124c0.432,0,0.735-0.051,0.899-0.174c0.164-0.131,0.257-0.322,0.257-0.602
		c0-0.264-0.071-0.428-0.22-0.525c-0.122-0.098-0.378-0.153-0.771-0.153H11.227z"/>
	<polygon fill="#ED1C24" points="13.986,64.099 14.728,58.102 15.906,58.102 15.609,60.433 17.895,60.433 18.179,58.102 
		19.354,58.102 18.611,64.099 17.455,64.099 17.747,61.501 15.485,61.501 15.16,64.099 	"/>
	<path fill="#ED1C24" d="M22.693,64.265c-0.823,0-1.508-0.267-2.005-0.805c-0.495-0.514-0.739-1.217-0.739-2.082
		c0-0.428,0.057-0.844,0.196-1.242c0.145-0.39,0.346-0.763,0.607-1.072c0.294-0.355,0.642-0.631,1.054-0.814
		c0.406-0.189,0.851-0.279,1.327-0.279c0.831,0,1.493,0.246,2.005,0.764c0.497,0.529,0.76,1.212,0.76,2.068
		c0,0.432-0.079,0.865-0.205,1.242c-0.127,0.398-0.3,0.729-0.555,1.043c-0.298,0.373-0.663,0.678-1.072,0.86
		C23.631,64.154,23.186,64.265,22.693,64.265 M23.062,59.063c-0.555,0-1.013,0.212-1.377,0.645
		c-0.366,0.432-0.548,0.979-0.548,1.641c0,0.555,0.143,1,0.426,1.326c0.309,0.327,0.721,0.496,1.208,0.496
		c0.537,0,1.009-0.225,1.374-0.674c0.36-0.432,0.551-0.983,0.551-1.637c0-0.555-0.151-1-0.449-1.313
		C23.965,59.208,23.565,59.063,23.062,59.063"/>
	<path fill="#ED1C24" d="M27.674,64.099h-1.192l0.743-5.997h1.067c0.534,0,0.898,0.029,1.133,0.093
		c0.211,0.063,0.401,0.152,0.571,0.31c0.187,0.152,0.332,0.339,0.421,0.563c0.093,0.225,0.134,0.492,0.134,0.776
		c0,0.325-0.045,0.627-0.165,0.873c-0.106,0.271-0.267,0.491-0.484,0.67c-0.193,0.144-0.402,0.255-0.646,0.321
		c-0.23,0.068-0.596,0.098-1.04,0.098h-0.275L27.674,64.099z M28.056,60.784h0.194c0.433,0,0.754-0.067,0.895-0.203
		c0.157-0.135,0.236-0.365,0.236-0.699c0-0.275-0.058-0.483-0.199-0.59c-0.125-0.102-0.388-0.156-0.774-0.156h-0.134L28.056,60.784z
		"/>
	<path fill="#ED1C24" d="M29.84,64.099l2.9-5.997h1.255l1.361,5.997h-1.255l-0.228-1.288h-2.117l-0.609,1.288H29.84z M33.647,61.827
		l-0.259-1.424c-0.013-0.145-0.047-0.318-0.071-0.514c-0.01-0.221-0.035-0.461-0.053-0.742c-0.049,0.217-0.11,0.412-0.168,0.611
		c-0.072,0.187-0.143,0.352-0.208,0.525l-0.695,1.543H33.647z"/>
	<polygon fill="#ED1C24" points="35.974,64.099 36.699,58.102 37.882,58.102 37.276,63.036 39.195,63.036 39.074,64.099 	"/>
	<path fill="#ED1C24" d="M46.555,63.892c-0.232,0.106-0.497,0.207-0.771,0.263c-0.265,0.071-0.542,0.11-0.857,0.11
		c-0.814,0-1.462-0.267-1.976-0.805c-0.501-0.514-0.75-1.217-0.75-2.057c0-0.441,0.071-0.869,0.199-1.268
		c0.152-0.39,0.352-0.763,0.611-1.072c0.297-0.369,0.644-0.64,1.035-0.822c0.418-0.187,0.854-0.271,1.338-0.271
		c0.343,0,0.667,0.039,0.962,0.123c0.293,0.102,0.577,0.233,0.84,0.411l-0.147,1.175c-0.306-0.209-0.557-0.387-0.84-0.479
		c-0.272-0.098-0.539-0.153-0.814-0.153c-0.582,0-1.059,0.217-1.445,0.648c-0.356,0.42-0.551,0.984-0.551,1.654
		c0,0.555,0.156,0.992,0.437,1.326c0.3,0.327,0.696,0.484,1.199,0.484c0.326,0,0.623-0.056,0.903-0.145
		c0.267-0.081,0.517-0.242,0.751-0.428L46.555,63.892z"/>
	<polygon fill="#ED1C24" points="47.619,64.099 48.352,58.102 49.531,58.102 48.802,64.099 	"/>
	<polygon fill="#ED1C24" points="50.875,64.099 51.483,59.157 50.029,59.157 50.171,58.102 54.13,58.102 54.002,59.157 
		52.653,59.157 52.045,64.099 	"/>
	<path fill="#ED1C24" d="M55.045,64.099l0.409-2.75l-1.439-3.247h1.311l0.534,1.509c0.048,0.136,0.089,0.264,0.133,0.398
		c0.033,0.127,0.063,0.275,0.093,0.411c0.051-0.132,0.179-0.377,0.38-0.72l0.057-0.107l0.898-1.491h1.37l-2.158,3.234l-0.42,2.763
		H55.045z"/>
	<polygon fill="#ED1C24" points="60.98,64.099 61.731,58.102 62.888,58.102 62.278,63.036 64.21,63.036 64.08,64.099 	"/>
	<polygon fill="#ED1C24" points="64.813,64.099 65.55,58.102 66.721,58.102 65.979,64.099 	"/>
	<path fill="#ED1C24" d="M67.217,64.099l0.742-5.997h1.211l1.729,3.095c0.173,0.334,0.332,0.593,0.382,0.754
		c0.09,0.166,0.148,0.344,0.207,0.496c0.006-0.275,0.01-0.525,0.029-0.742c0.022-0.225,0.03-0.394,0.052-0.521l0.388-3.081h1.1
		l-0.74,5.997h-1.133l-1.926-3.483c-0.121-0.221-0.228-0.407-0.294-0.572c-0.069-0.153-0.143-0.297-0.188-0.45v0.188
		c0,0.207,0,0.398-0.013,0.584c-0.004,0.204-0.009,0.387-0.048,0.539l-0.414,3.195H67.217z"/>
	<polygon fill="#ED1C24" points="73.553,64.099 74.253,58.102 75.452,58.102 75.119,60.802 77.293,58.102 78.677,58.102 
		76.298,60.987 77.971,64.099 76.67,64.099 75.084,61.085 74.707,64.099 	"/>
	<polygon fill="#ED1C24" points="80.917,64.099 81.654,58.102 82.816,58.102 82.211,63.036 84.146,63.036 84.011,64.099 	"/>
	<polygon fill="#ED1C24" points="84.731,64.099 85.473,58.102 86.635,58.102 85.911,64.099 	"/>
	<path fill="#ED1C24" d="M86.792,64.099l1.574-5.997h1.228l0.526,2.742c0.034,0.204,0.079,0.45,0.113,0.712
		c0.014,0.271,0.032,0.556,0.073,0.873c0.056-0.24,0.114-0.482,0.207-0.707c0.06-0.221,0.145-0.445,0.242-0.67l1.254-2.95h1.276
		l0.063,5.997h-1.093l0.041-2.805c0.006-0.307,0.018-0.628,0.032-0.934c0.017-0.339,0.026-0.648,0.066-0.982
		c-0.099,0.322-0.187,0.609-0.313,0.881c-0.098,0.275-0.194,0.525-0.284,0.754l-1.378,3.086h-0.622l-0.686-3.373
		c-0.03-0.174-0.062-0.365-0.097-0.623c-0.019-0.242-0.055-0.496-0.063-0.793c-0.05,0.359-0.124,0.657-0.151,0.859
		c-0.022,0.226-0.053,0.365-0.095,0.463l-0.781,3.467H86.792z"/>
	<polygon fill="#ED1C24" points="94.216,64.099 94.95,58.102 96.123,58.102 95.378,64.099 	"/>
	<polygon fill="#ED1C24" points="97.454,64.099 98.077,59.157 96.627,59.157 96.759,58.102 100.711,58.102 100.594,59.157 
		99.243,59.157 98.642,64.099 	"/>
	<polygon fill="#ED1C24" points="100.736,64.099 101.478,58.102 104.792,58.102 104.663,59.161 102.51,59.161 102.331,60.505 
		104.483,60.505 104.377,61.53 102.211,61.53 102.017,63.04 104.194,63.04 104.057,64.099 	"/>
	<path fill="#ED1C24" d="M105.212,64.099l0.715-5.997h1.174c0.659,0,1.126,0.029,1.404,0.075c0.277,0.039,0.514,0.111,0.684,0.221
		c0.402,0.221,0.693,0.556,0.9,0.98c0.218,0.444,0.316,0.957,0.316,1.551c0,0.58-0.086,1.077-0.275,1.5
		c-0.195,0.412-0.495,0.785-0.883,1.094c-0.264,0.204-0.58,0.344-0.924,0.438c-0.365,0.089-0.906,0.139-1.653,0.139h-0.457H105.212z
		 M106.492,63.015h0.066c0.267,0.021,0.463,0.025,0.578,0.025c0.395,0,0.725-0.038,0.943-0.106c0.243-0.071,0.449-0.22,0.608-0.368
		c0.165-0.204,0.295-0.454,0.383-0.738c0.083-0.271,0.146-0.602,0.146-0.967c0-0.584-0.118-1.013-0.36-1.268
		c-0.212-0.271-0.605-0.394-1.148-0.394h-0.755L106.492,63.015z"/>
</g>
</svg>
